<svg xmlns="http://www.w3.org/2000/svg" width="351" height="448" fill="none"><path fill="#fff" d="M52 240h26v26H52zM78 240h26v26H78zM104 240h26v26h-26zM104 266h26v26h-26zM104 292h26v26h-26zM104 318h26v26h-26zM78 266h26v26H78zM104 214h26v26h-26zM104 188h26v26h-26zM104 162h26v26h-26zM78 214h26v26H78zM182 240h-26v26h26zM156 240h-26v26h26zM156 266h-26v26h26zM156 214h-26v26h26zM52 214h26v26H52zM26 240h26v26H26zM0 240h26v26H0zM52 266h26v26H52zM78 292h26v26H78zM78 318h26v26H78zM104 344h26v26h-26zM130 318h26v26h-26zM130 292h26v26h-26zM156 266h26v26h-26zM182 240h26v26h-26zM208 240h26v26h-26zM156 214h26v26h-26zM130 188h26v26h-26zM130 162h26v26h-26zM104 136h26v26h-26zM104 110h26v26h-26zM104 84h26v26h-26zM104 58h26v26h-26zM104 422h26v26h-26zM104 396h26v26h-26zM104 370h26v26h-26zM78 162h26v26H78zM78 188h26v26H78zM221 78h26v26h-26zM247 78h26v26h-26zM247 104h26v26h-26zM247 52h26v26h-26zM299 78h-26v26h26zM221 52h26v26h-26zM195 78h26v26h-26zM221 104h26v26h-26zM247 130h26v26h-26zM273 104h26v26h-26zM299 78h26v26h-26zM273 52h26v26h-26zM247 26h26v26h-26zM247 0h26v26h-26zM247 156h26v26h-26zM299 266h26v26h-26zM299 240h26v26h-26zM299 318h26v26h-26zM299 344h26v26h-26zM273 292h26v26h-26zM325 292h26v26h-26zM299 292h26v26h-26z"/></svg>