<svg width="351" height="448" viewBox="0 0 351 448" fill="none" xmlns="http://www.w3.org/2000/svg">
<rect x="52" y="240" width="26" height="26" fill="white"/>
<rect x="78" y="240" width="26" height="26" fill="white"/>
<rect x="104" y="240" width="26" height="26" fill="white"/>
<rect x="104" y="266" width="26" height="26" fill="white"/>
<rect x="104" y="292" width="26" height="26" fill="white"/>
<rect x="104" y="318" width="26" height="26" fill="white"/>
<rect x="78" y="266" width="26" height="26" fill="white"/>
<rect x="104" y="214" width="26" height="26" fill="white"/>
<rect x="104" y="188" width="26" height="26" fill="white"/>
<rect x="104" y="162" width="26" height="26" fill="white"/>
<rect x="78" y="214" width="26" height="26" fill="white"/>
<rect width="26" height="26" transform="matrix(-1 0 0 1 182 240)" fill="white"/>
<rect width="26" height="26" transform="matrix(-1 0 0 1 156 240)" fill="white"/>
<rect width="26" height="26" transform="matrix(-1 0 0 1 156 266)" fill="white"/>
<rect width="26" height="26" transform="matrix(-1 0 0 1 156 214)" fill="white"/>
<rect x="52" y="214" width="26" height="26" fill="#E1E1E1"/>
<rect x="26" y="240" width="26" height="26" fill="#E1E1E1"/>
<rect y="240" width="26" height="26" fill="#E1E1E1"/>
<rect x="52" y="266" width="26" height="26" fill="#E1E1E1"/>
<rect x="78" y="292" width="26" height="26" fill="#E1E1E1"/>
<rect x="78" y="318" width="26" height="26" fill="#E1E1E1"/>
<rect x="104" y="344" width="26" height="26" fill="#E1E1E1"/>
<rect x="130" y="318" width="26" height="26" fill="#E1E1E1"/>
<rect x="130" y="292" width="26" height="26" fill="#E1E1E1"/>
<rect x="156" y="266" width="26" height="26" fill="#E1E1E1"/>
<rect x="182" y="240" width="26" height="26" fill="#E1E1E1"/>
<rect x="208" y="240" width="26" height="26" fill="#E1E1E1"/>
<rect x="156" y="214" width="26" height="26" fill="#E1E1E1"/>
<rect x="130" y="188" width="26" height="26" fill="#E1E1E1"/>
<rect x="130" y="162" width="26" height="26" fill="#E1E1E1"/>
<rect x="104" y="136" width="26" height="26" fill="#E1E1E1"/>
<rect x="104" y="110" width="26" height="26" fill="#E1E1E1"/>
<rect x="104" y="84" width="26" height="26" fill="#E1E1E1"/>
<rect x="104" y="58" width="26" height="26" fill="#E1E1E1"/>
<rect x="104" y="422" width="26" height="26" fill="#E1E1E1"/>
<rect x="104" y="396" width="26" height="26" fill="#E1E1E1"/>
<rect x="104" y="370" width="26" height="26" fill="#E1E1E1"/>
<rect x="78" y="162" width="26" height="26" fill="#E1E1E1"/>
<rect x="78" y="188" width="26" height="26" fill="#E1E1E1"/>
<rect x="221" y="78" width="26" height="26" fill="white"/>
<rect x="247" y="78" width="26" height="26" fill="white"/>
<rect x="247" y="104" width="26" height="26" fill="white"/>
<rect x="247" y="52" width="26" height="26" fill="white"/>
<rect width="26" height="26" transform="matrix(-1 0 0 1 299 78)" fill="white"/>
<rect x="221" y="52" width="26" height="26" fill="#E1E1E1"/>
<rect x="195" y="78" width="26" height="26" fill="#E1E1E1"/>
<rect x="221" y="104" width="26" height="26" fill="#E1E1E1"/>
<rect x="247" y="130" width="26" height="26" fill="#E1E1E1"/>
<rect x="273" y="104" width="26" height="26" fill="#E1E1E1"/>
<rect x="299" y="78" width="26" height="26" fill="#E1E1E1"/>
<rect x="273" y="52" width="26" height="26" fill="#E1E1E1"/>
<rect x="247" y="26" width="26" height="26" fill="#E1E1E1"/>
<rect x="247" width="26" height="26" fill="#E1E1E1"/>
<rect x="247" y="156" width="26" height="26" fill="#E1E1E1"/>
<rect x="299" y="266" width="26" height="26" fill="#E1E1E1"/>
<rect x="299" y="240" width="26" height="26" fill="#E1E1E1"/>
<rect x="299" y="318" width="26" height="26" fill="#E1E1E1"/>
<rect x="299" y="344" width="26" height="26" fill="#E1E1E1"/>
<rect x="273" y="292" width="26" height="26" fill="#E1E1E1"/>
<rect x="325" y="292" width="26" height="26" fill="#E1E1E1"/>
<rect x="299" y="292" width="26" height="26" fill="white"/>
</svg>
